<svg xmlns="http://www.w3.org/2000/svg" version="1.1" xmlns:xlink="http://www.w3.org/1999/xlink" xmlns:svgjs="http://svgjs.com/svgjs" width="30" height="30" x="0" y="0" viewBox="0 0 512 512" style="enable-background:new 0 0 512 512" xml:space="preserve" class=""><g><path xmlns="http://www.w3.org/2000/svg" d="m409.191406 330.753906-4.789062-3.703125c-8.890625-6.871093-14.867188-15.734375-17.3125-25.621093-13.800782-56-62.800782-89.429688-131.089844-89.429688s-117.289062 33.429688-131.089844 89.429688c-2.445312 9.886718-8.421875 18.75-17.3125 25.621093l-4.789062 3.703125c-27.964844 21.488282-50.054688 38.480469-38.703125 88.917969 10.109375 44.941406 47.417969 81.105469 92.84375 89.984375 8.011719 1.566406 16.039062 2.328125 24.007812 2.328125 16.566407 0 32.84375-3.339844 48.003907-9.960937 17.167968-7.5 36.914062-7.5 54.082031 0l.015625.015624c22.4375 9.800782 47.3125 12.394532 72.011718 7.617188 45.410157-8.878906 82.71875-45.042969 92.824219-89.984375 11.351563-50.433594-10.738281-67.429687-38.703125-88.917969zm0 0" fill="#363636" data-original="#000000" class=""></path><path xmlns="http://www.w3.org/2000/svg" d="m181 150c33.089844 0 60-33.648438 60-75s-26.910156-75-60-75-60 33.648438-60 75 26.910156 75 60 75zm0 0" fill="#363636" data-original="#000000" class=""></path><path xmlns="http://www.w3.org/2000/svg" d="m331 150c33.089844 0 60-33.648438 60-75s-26.910156-75-60-75-60 33.648438-60 75 26.910156 75 60 75zm0 0" fill="#363636" data-original="#000000" class=""></path><path xmlns="http://www.w3.org/2000/svg" d="m120 196c0-41.351562-26.910156-75-60-75s-60 33.648438-60 75 26.910156 75 60 75 60-33.648438 60-75zm0 0" fill="#363636" data-original="#000000" class=""></path><path xmlns="http://www.w3.org/2000/svg" d="m452 121c-33.089844 0-60 33.648438-60 75s26.910156 75 60 75 60-33.648438 60-75-26.910156-75-60-75zm0 0" fill="#363636" data-original="#000000" class=""></path></g></svg>